<svg width="47" height="364" viewBox="0 0 47 364" fill="none" xmlns="http://www.w3.org/2000/svg">
<path d="M27.2691 363.587L7.66446 1.25794L12.2985 1.19873L32.3319 363.521L27.2691 363.587Z" fill="url(#paint0_linear_4503_57935)"/>
<path d="M31.9229 201.417C24.8238 201.571 19.771 198.552 20.3487 192.115L29.0948 191.925C28.9672 193.83 29.9219 194.95 31.9505 194.906C33.5142 194.872 34.639 194.128 34.6088 192.736C34.5161 188.468 22.196 189.58 21.9663 180.92C21.788 174.625 26.7814 170.966 33.7534 170.815C40.7253 170.663 45.2349 174.032 44.7267 179.834L35.8117 180.027C36.0711 178.33 35.1183 177.295 33.4297 177.332C31.9492 177.364 30.9119 178.19 30.9412 179.54C31.0293 183.598 43.3618 183.161 43.5498 191.822C43.6654 197.147 39.3159 201.256 31.9229 201.417Z" fill="url(#paint1_linear_4503_57935)"/>
<path d="M0.972656 167.085L9.80438 166.893L13.2266 188.293L23.281 166.601L32.1127 166.409L17.2102 196.533L6.64817 196.763L0.972656 167.085Z" fill="url(#paint2_linear_4503_57935)"/>
<path d="M12.7436 205.013L34.9908 157.863L35.8628 158.496L13.3163 205.32L12.7436 205.013Z" fill="white"/>
<defs>
<linearGradient id="paint0_linear_4503_57935" x1="11.4121" y1="39.1543" x2="89.9103" y2="348.26" gradientUnits="userSpaceOnUse">
<stop stop-color="#171818"/>
<stop offset="0.461915" stop-color="#8C8F91"/>
<stop offset="0.942308" stop-color="white"/>
</linearGradient>
<linearGradient id="paint1_linear_4503_57935" x1="24.7315" y1="181.652" x2="35.3538" y2="187.716" gradientUnits="userSpaceOnUse">
<stop offset="0.02" stop-color="#494646"/>
<stop offset="0.11" stop-color="#9E9C9C"/>
<stop offset="0.44" stop-color="#DAD9D9"/>
<stop offset="0.76" stop-color="#F8F5F5"/>
<stop offset="1" stop-color="white"/>
</linearGradient>
<linearGradient id="paint2_linear_4503_57935" x1="1.29596" y1="181.977" x2="32.436" y2="181.301" gradientUnits="userSpaceOnUse">
<stop stop-color="white"/>
<stop offset="0.408654" stop-color="#F0F3F4"/>
<stop offset="0.923077" stop-color="#DBDBDB"/>
</linearGradient>
</defs>
</svg>
